# xmcd CD database file
#
# Track frame offsets:
#	150
#	23500
#	39729
#	55920
#	75211
#	105599
#	119858
#	156079
#	186250
#	203567
#	231761
#	250154
#
# Disc length: 3736 seconds
#
# Revision: 0
# Processed by: cddbd v1.5.2PL0 Copyright (c) Steve Scherf et al.
# Submitted via: CDex 1.51
#
DISCID=930e960c
DTITLE=Andrew Young - Live in Vienna
DYEAR=2007
DGENRE=Rhythmic Soul
TTITLE0=Together Again
TTITLE1=Memphis Underground
TTITLE2=The Last Time We Said Goodbye
TTITLE3=Soul People
TTITLE4=Don't Break My Heart
TTITLE5=Stranger On The Shore
TTITLE6=Careless Whisper
TTITLE7=A View From Above
TTITLE8=Partners In Crime
TTITLE9=Blue Mountain
TTITLE10=Come Together
TTITLE11=Baker Street
EXTD=YEAR: 2007
EXTT0=
EXTT1=
EXTT2=
EXTT3=
EXTT4=
EXTT5=
EXTT6=
EXTT7=
EXTT8=
EXTT9=
EXTT10=
EXTT11=
PLAYORDER=
